HIERARCHY
ROOT Hips
{
	OFFSET 0.327225 85.456291 8.060652
	CHANNELS 6 Xposition Yposition Zposition Zrotation Yrotation Xrotation 
	JOINT Spine
	{
		OFFSET 0.000000 8.814246 -2.080107
		CHANNELS 3 Zrotation Yrotation Xrotation
		JOINT Spine1
		{
			OFFSET -0.000000 8.844141 0.000000
			CHANNELS 3 Zrotation Yrotation Xrotation
			JOINT Spine2
			{
				OFFSET 0.000000 11.682268 0.000000
				CHANNELS 3 Zrotation Yrotation Xrotation
				JOINT Spine3
				{
					OFFSET 0.000000 11.746700 0.000000
					CHANNELS 3 Zrotation Yrotation Xrotation
					JOINT Neck
					{
						OFFSET 0.000000 17.658264 0.000000
						CHANNELS 3 Zrotation Yrotation Xrotation
						JOINT Neck1
						{
							OFFSET 0.000000 5.101515 0.000000
							CHANNELS 3 Zrotation Yrotation Xrotation
							JOINT Head
							{
								OFFSET -0.000000 5.101515 -0.000000
								CHANNELS 3 Zrotation Yrotation Xrotation
								JOINT HeadEnd
								{
									OFFSET 0.000000 11.655085 0.000000
									CHANNELS 3 Zrotation Yrotation Xrotation
									End Site
									{
										OFFSET 0.000000 0.000000 0.000000
									}
								}
							}
						}
					}
					JOINT RightShoulder
					{
						OFFSET -2.625389 11.175210 -0.000000
						CHANNELS 3 Zrotation Yrotation Xrotation
						JOINT RightArm
						{
							OFFSET 0.000000 10.434715 0.000000
							CHANNELS 3 Zrotation Yrotation Xrotation
							JOINT RightForeArm
							{
								OFFSET -0.000000 29.628420 -0.000000
								CHANNELS 3 Zrotation Yrotation Xrotation
								JOINT RightHand
								{
									OFFSET 0.000000 22.857611 -0.000000
									CHANNELS 3 Zrotation Yrotation Xrotation
									JOINT RightHandThumb1
									{
										OFFSET -2.867323 3.959563 2.944291
										CHANNELS 3 Zrotation Yrotation Xrotation
										JOINT RightHandThumb2
										{
											OFFSET -0.000000 3.350399 0.000000
											CHANNELS 3 Zrotation Yrotation Xrotation
											JOINT RightHandThumb3
											{
												OFFSET -0.000000 3.756509 0.000000
												CHANNELS 3 Zrotation Yrotation Xrotation
												JOINT RightHandThumb4
												{
													OFFSET -0.000000 3.147345 0.000000
													CHANNELS 3 Zrotation Yrotation Xrotation
													End Site
													{
														OFFSET 0.000000 0.000000 0.000000
													}
												}
											}
										}
									}
									JOINT RightHandIndex1
									{
										OFFSET -0.086752 10.030893 2.345280
										CHANNELS 3 Zrotation Yrotation Xrotation
										JOINT RightHandIndex2
										{
											OFFSET -0.000000 4.061090 -0.000000
											CHANNELS 3 Zrotation Yrotation Xrotation
											JOINT RightHandIndex3
											{
												OFFSET 0.000000 3.248873 -0.000000
												CHANNELS 3 Zrotation Yrotation Xrotation
												JOINT RightHandIndex4
												{
													OFFSET 0.000000 2.639709 -0.000000
													CHANNELS 3 Zrotation Yrotation Xrotation
													End Site
													{
														OFFSET 0.000000 0.000000 0.000000
													}
												}
											}
										}
									}
									JOINT RightHandMiddle1
									{
										OFFSET 0.104102 9.502952 0.006768
										CHANNELS 3 Zrotation Yrotation Xrotation
										JOINT RightHandMiddle2
										{
											OFFSET -0.000000 4.568727 -0.000000
											CHANNELS 3 Zrotation Yrotation Xrotation
											JOINT RightHandMiddle3
											{
												OFFSET -0.000000 3.654981 -0.000000
												CHANNELS 3 Zrotation Yrotation Xrotation
												JOINT RightHandMiddle4
												{
													OFFSET -0.000000 2.741236 -0.000000
													CHANNELS 3 Zrotation Yrotation Xrotation
													End Site
													{
														OFFSET 0.000000 0.000000 0.000000
													}
												}
											}
										}
									}
									JOINT RightHandRing1
									{
										OFFSET 0.086752 8.921708 -2.267442
										CHANNELS 3 Zrotation Yrotation Xrotation
										JOINT RightHandRing2
										{
											OFFSET -0.000000 4.061090 0.000000
											CHANNELS 3 Zrotation Yrotation Xrotation
											JOINT RightHandRing3
											{
												OFFSET 0.000000 3.654981 -0.000000
												CHANNELS 3 Zrotation Yrotation Xrotation
												JOINT RightHandRing4
												{
													OFFSET 0.000000 2.741236 -0.000000
													CHANNELS 3 Zrotation Yrotation Xrotation
													End Site
													{
														OFFSET 0.000000 0.000000 0.000000
													}
												}
											}
										}
									}
									JOINT RightHandPinky1
									{
										OFFSET -0.173504 7.976997 -4.467199
										CHANNELS 3 Zrotation Yrotation Xrotation
										JOINT RightHandPinky2
										{
											OFFSET -0.000000 3.350399 0.000000
											CHANNELS 3 Zrotation Yrotation Xrotation
											JOINT RightHandPinky3
											{
												OFFSET 0.000000 2.842763 -0.000000
												CHANNELS 3 Zrotation Yrotation Xrotation
												JOINT RightHandPinky4
												{
													OFFSET -0.000000 2.639709 0.000000
													CHANNELS 3 Zrotation Yrotation Xrotation
													End Site
													{
														OFFSET 0.000000 0.000000 0.000000
													}
												}
											}
										}
									}
									JOINT RightForeArmEnd
									{
										OFFSET 0.000000 0.000000 0.000000
										CHANNELS 3 Zrotation Yrotation Xrotation
										End Site
										{
											OFFSET 0.000000 0.000000 0.000000
										}
									}
								}
								JOINT RightArmEnd
								{
									OFFSET 0.000000 0.000000 0.000000
									CHANNELS 3 Zrotation Yrotation Xrotation
									End Site
									{
										OFFSET 0.000000 0.000000 0.000000
									}
								}
							}
						}
					}
					JOINT LeftShoulder
					{
						OFFSET 2.625389 11.175210 0.000000
						CHANNELS 3 Zrotation Yrotation Xrotation
						JOINT LeftArm
						{
							OFFSET -0.000000 10.813635 0.000000
							CHANNELS 3 Zrotation Yrotation Xrotation
							JOINT LeftForeArm
							{
								OFFSET 0.000000 28.724781 -0.000000
								CHANNELS 3 Zrotation Yrotation Xrotation
								JOINT LeftHand
								{
									OFFSET 0.644384 25.716167 -0.328871
									CHANNELS 3 Zrotation Yrotation Xrotation
									JOINT LeftHandThumb1
									{
										OFFSET 2.867323 3.959563 2.944291
										CHANNELS 3 Zrotation Yrotation Xrotation
										JOINT LeftHandThumb2
										{
											OFFSET 0.000000 3.350399 -0.000000
											CHANNELS 3 Zrotation Yrotation Xrotation
											JOINT LeftHandThumb3
											{
												OFFSET 0.000000 3.756509 0.000000
												CHANNELS 3 Zrotation Yrotation Xrotation
												JOINT LeftHandThumb4
												{
													OFFSET 0.000000 3.100000 0.000000
													CHANNELS 3 Zrotation Yrotation Xrotation
													End Site
													{
														OFFSET 0.000000 0.000000 0.000000
													}
												}
											}
										}
									}
									JOINT LeftHandIndex1
									{
										OFFSET 0.086752 10.030893 2.345280
										CHANNELS 3 Zrotation Yrotation Xrotation
										JOINT LeftHandIndex2
										{
											OFFSET 0.000000 4.061090 0.000000
											CHANNELS 3 Zrotation Yrotation Xrotation
											JOINT LeftHandIndex3
											{
												OFFSET -0.000000 3.248873 -0.000000
												CHANNELS 3 Zrotation Yrotation Xrotation
												JOINT LeftHandIndex4
												{
													OFFSET -0.000000 2.639709 -0.000000
													CHANNELS 3 Zrotation Yrotation Xrotation
													End Site
													{
														OFFSET 0.000000 0.000000 0.000000
													}
												}
											}
										}
									}
									JOINT LeftHandMiddle1
									{
										OFFSET -0.104102 9.502952 0.006768
										CHANNELS 3 Zrotation Yrotation Xrotation
										JOINT LeftHandMiddle2
										{
											OFFSET 0.000000 4.568727 0.000000
											CHANNELS 3 Zrotation Yrotation Xrotation
											JOINT LeftHandMiddle3
											{
												OFFSET -0.000000 3.654981 -0.000000
												CHANNELS 3 Zrotation Yrotation Xrotation
												JOINT LeftHandMiddle4
												{
													OFFSET -0.000000 2.741236 -0.000000
													CHANNELS 3 Zrotation Yrotation Xrotation
													End Site
													{
														OFFSET 0.000000 0.000000 0.000000
													}
												}
											}
										}
									}
									JOINT LeftHandRing1
									{
										OFFSET -0.086752 8.921708 -2.267442
										CHANNELS 3 Zrotation Yrotation Xrotation
										JOINT LeftHandRing2
										{
											OFFSET 0.000000 4.061090 0.000000
											CHANNELS 3 Zrotation Yrotation Xrotation
											JOINT LeftHandRing3
											{
												OFFSET -0.000000 3.654981 -0.000000
												CHANNELS 3 Zrotation Yrotation Xrotation
												JOINT LeftHandRing4
												{
													OFFSET -0.000000 2.741236 -0.000000
													CHANNELS 3 Zrotation Yrotation Xrotation
													End Site
													{
														OFFSET 0.000000 0.000000 0.000000
													}
												}
											}
										}
									}
									JOINT LeftHandPinky1
									{
										OFFSET 0.173504 7.976997 -4.467199
										CHANNELS 3 Zrotation Yrotation Xrotation
										JOINT LeftHandPinky2
										{
											OFFSET 0.000000 3.350399 0.000000
											CHANNELS 3 Zrotation Yrotation Xrotation
											JOINT LeftHandPinky3
											{
												OFFSET 0.000000 2.842763 0.000000
												CHANNELS 3 Zrotation Yrotation Xrotation
												JOINT LeftHandPinky4
												{
													OFFSET 0.000000 2.639709 -0.000000
													CHANNELS 3 Zrotation Yrotation Xrotation
													End Site
													{
														OFFSET 0.000000 0.000000 0.000000
													}
												}
											}
										}
									}
									JOINT LeftForeArmEnd
									{
										OFFSET 0.000000 0.000000 0.000000
										CHANNELS 3 Zrotation Yrotation Xrotation
										End Site
										{
											OFFSET 0.000000 0.000000 0.000000
										}
									}
								}
								JOINT LeftArmEnd
								{
									OFFSET 0.000000 0.000000 0.000000
									CHANNELS 3 Zrotation Yrotation Xrotation
									End Site
									{
										OFFSET 0.000000 0.000000 0.000000
									}
								}
							}
						}
					}
				}
			}
		}
	}
	JOINT RightUpLeg
	{
		OFFSET -11.289943 0.000000 -0.000000
		CHANNELS 3 Zrotation Yrotation Xrotation
		JOINT RightLeg
		{
			OFFSET -0.000000 -38.200325 -0.000000
			CHANNELS 3 Zrotation Yrotation Xrotation
			JOINT RightFoot
			{
				OFFSET -0.000000 -39.900856 0.000000
				CHANNELS 3 Zrotation Yrotation Xrotation
				JOINT RightToeBase
				{
					OFFSET 0.000000 -0.000000 15.261641
					CHANNELS 3 Zrotation Yrotation Xrotation
					JOINT RightToeBaseEnd
					{
						OFFSET -0.000000 -0.000000 7.370709
						CHANNELS 3 Zrotation Yrotation Xrotation
						End Site
						{
							OFFSET 0.000000 0.000000 0.000000
						}
					}
				}
				JOINT RightLegEnd
				{
					OFFSET 0.000000 0.000000 0.000000
					CHANNELS 3 Zrotation Yrotation Xrotation
					End Site
					{
						OFFSET 0.000000 0.000000 0.000000
					}
				}
			}
			JOINT RightUpLegEnd
			{
				OFFSET 0.000000 0.000000 0.000000
				CHANNELS 3 Zrotation Yrotation Xrotation
				End Site
				{
					OFFSET 0.000000 0.000000 0.000000
				}
			}
		}
	}
	JOINT LeftUpLeg
	{
		OFFSET 11.315661 -0.000000 0.000000
		CHANNELS 3 Zrotation Yrotation Xrotation
		JOINT LeftLeg
		{
			OFFSET -0.000000 -38.200325 -0.000000
			CHANNELS 3 Zrotation Yrotation Xrotation
			JOINT LeftFoot
			{
				OFFSET -0.000000 -39.900856 0.000000
				CHANNELS 3 Zrotation Yrotation Xrotation
				JOINT LeftToeBase
				{
					OFFSET 0.000000 -0.000000 15.261641
					CHANNELS 3 Zrotation Yrotation Xrotation
					JOINT LeftToeBaseEnd
					{
						OFFSET -0.000000 0.000000 7.539996
						CHANNELS 3 Zrotation Yrotation Xrotation
						End Site
						{
							OFFSET 0.000000 0.000000 0.000000
						}
					}
				}
				JOINT LeftLegEnd
				{
					OFFSET 0.000000 0.000000 0.000000
					CHANNELS 3 Zrotation Yrotation Xrotation
					End Site
					{
						OFFSET 0.000000 0.000000 0.000000
					}
				}
			}
			JOINT LeftUpLegEnd
			{
				OFFSET 0.000000 0.000000 0.000000
				CHANNELS 3 Zrotation Yrotation Xrotation
				End Site
				{
					OFFSET 0.000000 0.000000 0.000000
				}
			}
		}
	}
}
MOTION
Frames: 4
Frame Time: 0.016667
0.327225 85.456291 8.060652 -1.060160 -0.454608 -23.207590 2.322709 -0.297220 12.236113 0.341520 -0.185955 6.095392 -2.927263 -0.107008 18.660194 -3.766547 -0.127707 10.148421 -8.554237 3.011372 10.670642 -1.052736 0.746531 -1.072306 -1.427619 -1.392408 -19.988150 0.000000 0.000000 0.000000 91.634735 -0.442339 15.425826 54.665524 -30.476999 24.470922 -0.226760 15.539892 21.119818 5.921650 20.191023 -2.405218 13.495595 32.597275 68.996590 0.000003 0.000003 0.000009 0.000134 -0.000001 0.000005 0.000000 0.000000 0.000000 13.796139 -10.938026 1.277707 9.837293 0.396116 1.450871 9.837299 -0.105893 1.372970 0.000000 0.000000 0.000000 13.018492 -5.780196 0.547168 9.259837 0.477044 0.562421 9.259580 -0.040827 0.482464 0.000000 0.000000 0.000000 14.759333 1.948519 1.684468 10.371669 -0.929828 -0.808298 10.370477 0.055660 -0.609709 0.000000 0.000000 0.000000 15.656369 10.308870 0.915056 10.776875 -1.765082 -2.455533 10.769448 0.171573 -2.081882 0.000000 0.000000 0.000000 0.000000 0.000000 0.000000 0.000000 0.000000 0.000000 -92.594154 0.517031 10.482300 -55.364445 20.044870 9.159415 -0.966445 -10.157828 39.026314 -1.252406 -30.847612 -11.535672 -13.450125 -32.590797 68.901459 0.011028 0.011022 -0.022262 0.011023 0.011028 -0.022273 0.000000 0.000000 0.000000 -11.776063 -6.462783 0.977572 -8.183229 0.418838 -1.217398 -8.182890 -0.087328 -1.146339 0.000000 0.000000 0.000000 -11.505368 -1.486834 0.105365 -8.159037 0.488683 -0.513053 -8.158793 0.006084 -0.433014 0.000000 0.000000 0.000000 -14.670410 7.057579 0.049814 -10.405230 -0.938801 0.816612 -10.403862 0.035557 0.635699 0.000000 0.000000 0.000000 -17.068953 15.932078 -0.778814 -11.779098 -1.717910 2.681325 -11.773773 0.235106 2.277516 0.000000 0.000000 0.000000 0.000000 0.000000 0.000000 0.000000 0.000000 0.000000 -5.285096 -1.941737 14.891479 -0.561212 -0.964231 30.047485 4.622950 -4.876317 6.481491 -0.907080 1.864290 -16.513636 0.000000 0.000000 0.000000 0.000000 0.000000 0.000000 0.000000 0.000000 0.000000 4.159544 -1.943718 10.882134 0.172503 0.240085 35.792629 -0.279231 6.748767 5.369925 0.530027 -0.512076 -20.503864 0.000000 0.000000 0.000000 0.000000 0.000000 0.000000 0.000000 0.000000 0.000000 
0.303389 85.260742 7.327311 -0.620882 -0.120642 -22.383974 1.319654 -0.215318 11.984809 0.607111 -0.159398 6.763868 -3.057498 0.259529 17.254354 -2.863707 -0.199431 9.087106 -9.290306 4.485488 10.813552 -2.009808 0.786193 -1.746435 -1.416485 -0.392231 -19.243135 0.000000 0.000000 0.000000 92.117798 -0.179154 15.012797 53.952305 -29.185513 23.326780 0.248533 16.814865 20.471640 5.098803 18.109480 -0.618092 -5.621944 0.880670 47.106697 -0.000008 0.000008 12.607863 0.000013 0.000054 9.184737 0.000014 0.000004 -0.000016 15.006794 0.799509 -1.269176 9.426995 0.029698 0.188343 9.516598 0.079034 0.166847 -0.000019 -0.000004 0.000000 13.068325 0.308559 -3.106846 8.630555 -0.014681 0.051650 8.473260 0.020877 0.056722 0.000009 -0.000009 0.000026 13.413203 -0.388369 -2.809185 9.809896 0.025996 0.010768 9.622266 -0.040603 0.004745 -0.000001 0.000481 0.000004 13.375444 -1.039859 -4.665823 10.298306 -0.059452 0.311535 10.064962 -0.234751 0.197440 -0.000751 0.000008 0.000050 0.000000 0.000000 0.000000 0.000000 0.000000 0.000000 -90.406425 -0.256497 10.705656 -57.956776 21.451519 6.130279 -1.154206 -9.425797 40.511398 0.839197 -29.738567 -6.007387 5.897906 -0.864651 47.085003 0.000013 0.000020 13.018816 -0.000096 -0.000006 9.492648 0.000124 -0.000018 0.000307 -12.639310 0.770578 -0.511946 -9.065278 -0.043768 -0.162048 -9.059785 0.032296 -0.154560 0.000013 0.000418 0.000022 -12.971474 0.323043 -2.682445 -8.531826 -0.042402 -0.069963 -8.380447 0.004020 -0.054575 0.000672 -0.000042 0.000059 -15.446032 -0.372233 -3.191551 -9.498096 0.066660 0.105681 -9.464219 -0.014584 0.097794 0.000337 -0.000011 -0.000002 -16.196980 -1.097970 -4.626551 -10.032449 0.149107 0.375948 -9.794844 -0.066738 0.352161 0.000306 -0.000018 -0.000051 0.000000 0.000000 0.000000 0.000000 0.000000 0.000000 -6.847826 1.086050 13.874451 -0.424013 -0.870497 27.348845 3.524973 -4.286571 7.636802 -0.917390 1.759254 -16.862333 0.000000 0.000000 0.000000 0.000000 0.000000 0.000000 0.000000 0.000000 0.000000 3.544067 -2.421228 11.286139 0.298473 0.273761 35.524620 -0.472620 7.805662 4.491092 0.332078 -0.894321 -19.991211 0.000000 0.000000 0.000000 0.000000 0.000000 0.000000 0.000000 0.000000 0.000000 
0.296544 85.280067 7.323892 -0.610513 -0.098895 -22.359797 1.364254 -0.215983 11.981424 0.597779 -0.146090 6.789313 -3.043724 0.162952 17.178284 -2.808894 -0.200943 8.989070 -9.253851 4.510465 10.908993 -1.945257 0.864688 -1.800992 -1.442997 -0.433147 -19.279299 0.000000 0.000000 0.000000 92.113327 -0.113543 15.000169 53.934589 -29.382467 23.251045 0.245570 16.753817 20.617144 5.036930 18.132915 -0.950878 -5.627926 0.873186 47.099770 0.000001 0.000013 12.579270 0.000013 0.000054 9.196993 0.000034 0.000012 -0.000041 14.779407 0.847333 -1.696837 9.281610 0.024773 0.162475 9.382491 0.075393 0.140896 -0.000015 0.000004 -0.000010 12.884656 0.328232 -3.500865 8.481037 -0.019089 0.045924 8.325246 0.020254 0.051252 0.000031 -0.000042 0.000021 13.208726 -0.413002 -3.207572 9.608616 0.037443 0.009836 9.437375 -0.036923 0.005663 -0.000023 0.000250 -0.000017 13.211186 -1.110925 -4.984225 10.068571 -0.029037 0.282918 9.831581 -0.223612 0.175446 -0.000748 0.000011 0.000022 0.000000 0.000000 0.000000 0.000000 0.000000 0.000000 -90.525032 -0.270439 10.675306 -58.220871 21.612879 6.175320 -1.165906 -9.508933 40.572529 0.779979 -29.760157 -5.956642 5.936106 -0.870211 47.094357 0.000015 0.000036 13.066209 -0.000108 -0.000002 9.529014 0.000217 -0.000002 0.000479 -12.458562 0.821375 -0.611965 -9.075413 -0.045819 -0.132301 -9.083364 0.034005 -0.130860 0.000015 0.000443 0.000016 -12.837768 0.344501 -2.770112 -8.539426 -0.045339 -0.062074 -8.401810 0.003550 -0.047320 0.000644 -0.000038 0.000013 -15.462909 -0.398535 -3.271300 -9.552819 0.072392 0.100154 -9.496029 -0.013659 0.093223 0.000460 0.000010 0.000003 -16.277414 -1.176383 -4.684037 -10.083260 0.164470 0.369288 -9.834106 -0.062216 0.340443 0.000349 0.000005 -0.000053 0.000000 0.000000 0.000000 0.000000 0.000000 0.000000 -6.771527 1.072901 13.805176 -0.421550 -0.861120 27.345991 3.409759 -4.197579 7.771545 -0.922570 1.728910 -16.907766 0.000000 0.000000 0.000000 0.000000 0.000000 0.000000 0.000000 0.000000 0.000000 3.484228 -2.487178 11.334983 0.302568 0.276349 35.479343 -0.426009 7.845572 4.579192 0.330005 -0.873059 -20.088177 0.000000 0.000000 0.000000 0.000000 0.000000 0.000000 0.000000 0.000000 0.000000 
0.280278 85.310326 7.333238 -0.572427 -0.074585 -22.315422 1.362834 -0.212381 11.941221 0.611959 -0.144659 6.719759 -3.026712 0.052959 17.160625 -2.755202 -0.228900 8.914285 -9.255375 4.507292 11.036113 -1.895803 0.918705 -1.809247 -1.451400 -0.461170 -19.325668 0.000000 0.000000 0.000000 92.146683 -0.106616 14.924364 53.848392 -29.471403 23.308813 0.227505 16.621166 20.605862 5.042949 17.854719 -1.102934 -5.603121 0.866441 47.087715 0.000004 0.000014 12.513454 0.000010 0.000055 9.173098 0.000035 0.000012 -0.000041 14.697385 0.861369 -2.052742 9.220138 0.023234 0.138665 9.329700 0.074427 0.118023 -0.000013 0.000004 -0.000011 12.807333 0.334288 -3.802494 8.404895 -0.020949 0.040804 8.248911 0.019639 0.046619 0.000030 -0.000053 0.000023 13.016087 -0.420893 -3.475553 9.447361 0.045032 0.006198 9.296735 -0.033378 0.003709 -0.000024 -0.000018 -0.000016 12.985040 -1.133777 -5.165523 9.851903 -0.005510 0.238406 9.624628 -0.210216 0.142645 -0.000790 0.000010 0.000009 0.000000 0.000000 0.000000 0.000000 0.000000 0.000000 -90.583748 -0.262290 10.653956 -58.310265 21.573172 6.272710 -1.189926 -9.533609 40.556305 0.479680 -29.630138 -6.051017 5.961278 -0.873508 47.099178 0.000014 0.000037 13.095336 -0.000114 -0.000002 9.551044 0.000145 -0.000001 0.000558 -12.256213 0.837025 -0.655051 -9.060929 -0.046299 -0.107169 -9.077204 0.035584 -0.109884 0.000013 0.000387 0.000017 -12.681054 0.351676 -2.810031 -8.531653 -0.046308 -0.055172 -8.396381 0.003346 -0.040639 0.000675 -0.000039 -0.000013 -15.422035 -0.408323 -3.326094 -9.581022 0.074490 0.096853 -9.505317 -0.012937 0.090543 0.000603 0.000011 0.000003 -16.310095 -1.206183 -4.744797 -10.116296 0.172608 0.369852 -9.856102 -0.057919 0.335932 0.000375 0.000004 -0.000054 0.000000 0.000000 0.000000 0.000000 0.000000 0.000000 -6.736740 1.053291 13.870344 -0.418821 -0.853532 27.155258 3.318646 -4.180513 7.957191 -0.929685 1.700641 -16.976509 0.000000 0.000000 0.000000 0.000000 0.000000 0.000000 0.000000 0.000000 0.000000 3.407535 -2.521873 11.479161 0.303608 0.282680 35.163624 -0.360110 7.917615 4.763054 0.333233 -0.855050 -20.153997 0.000000 0.000000 0.000000 0.000000 0.000000 0.000000 0.000000 0.000000 0.000000 
